<?xml version="1.0" encoding="utf-8"?>
<!-- Generator: Adobe Illustrator 27.3.1, SVG Export Plug-In . SVG Version: 6.00 Build 0)  -->
<svg version="1.1" id="Layer_2" xmlns="http://www.w3.org/2000/svg" xmlns:xlink="http://www.w3.org/1999/xlink" x="0px" y="0px"
	 viewBox="0 0 600 169.6" style="enable-background:new 0 0 600 169.6;" xml:space="preserve">
<style type="text/css">
	.st0{fill:#404141;}
	.st1{fill:#1F2020;}
	.st2{fill:#F1B24A;}
	.st3{fill:#202020;}
</style>
<g id="b_00000026842070193176796870000013608526702348187014_">
	<g>
		<path class="st0" d="M142.4,97.7c-5.3,22.5-25.5,39.2-49.6,39.2c-28.2,0-51-22.8-51-51s22.8-51,51-51c19.9,0,37.1,11.4,45.5,28
			l23.9-10.4C149.7,26.6,123.3,8.8,92.8,8.8c-42.5,0-77,34.5-77,77s34.5,77,77,77s77-34.5,77-77c0-2.8-0.2-5.6-0.5-8.3L142.4,97.7
			L142.4,97.7z"/>
		<path class="st1" d="M92.8,162.8c42.5,0,77-34.5,77-77c0-2.8-0.2-5.6-0.5-8.3l-26.9,20.1c-5.3,22.5-25.5,39.2-49.6,39.2
			c-15.2,0-28.8-6.6-38.1-17.1l-24.4,11C44.3,150.1,67,162.8,92.8,162.8L92.8,162.8z"/>
		<path class="st1" d="M178.1,26.8c-0.9,1.1-2,2.3-3.2,3.6c-1.2,1.3-2.4,2.7-3.8,4.1c-1.3,1.5-2.9,2.9-4.5,4.5
			c-0.8,0.8-1.6,1.6-2.5,2.4c-0.8,0.8-1.7,1.7-2.6,2.5c-1.8,1.6-3.7,3.3-5.7,5.1c-2,1.7-4.2,3.4-6.3,5.1c-0.5,0.4-1.1,0.9-1.6,1.3
			c-0.6,0.4-1.1,0.8-1.7,1.3c-1.2,0.8-2.3,1.7-3.5,2.6c-2.3,1.8-4.9,3.3-7.4,5c-5,3.3-10.4,6.4-16,9.4c-1.4,0.8-2.8,1.5-4.2,2.1
			c-1.4,0.7-2.8,1.4-4.3,2.1c-2.9,1.3-5.8,2.6-8.7,3.9c-5.9,2.4-11.8,4.6-17.7,6.5c-5.9,2-11.8,3.5-17.5,4.9
			c-5.7,1.3-11.3,2.5-16.6,3.3c-5.3,0.9-10.3,1.5-14.9,2c-9.2,0.9-16.9,1.1-22.1,1.1c-2.6,0-4.6-0.1-5.9-0.2c-0.3,0-0.6,0-0.8-0.1
			c-0.2,0-0.3,0-0.4-0.1c-0.1,0-0.1,0-0.1,0c-0.1,0-0.1,0-0.2,0c-0.1,0-0.2,0-0.2,0l0.1,2.9c0.4,6.2,2.5,21.3,13.1,37
			c6.2-1.2,14.3-3.2,23.7-6.1c5.1-1.6,10.5-3.4,16.2-5.5c5.7-2.1,11.5-4.6,17.5-7.3c5.9-2.8,12-5.8,18-9.2c6-3.3,11.9-7,17.7-10.9
			c2.8-2,5.7-4,8.5-6c1.4-1,2.7-2.1,4.1-3.1c1.4-1,2.7-2.1,4-3.2c5.3-4.3,10.2-8.7,14.8-13.2c2.3-2.3,4.6-4.4,6.6-6.7
			c1-1.1,2.1-2.3,3.1-3.4c0.5-0.6,1-1.1,1.5-1.6c0.5-0.6,0.9-1.1,1.4-1.7c1.9-2.3,3.7-4.4,5.4-6.5c1.6-2.2,3.2-4.3,4.8-6.3
			c0.8-1,1.5-2,2.1-3c0.7-1,1.3-2,2-2.9c1.3-1.9,2.6-3.7,3.6-5.4c1.1-1.7,2.1-3.4,3-4.9c0.9-1.5,1.8-2.9,2.4-4.2
			c2.8-5.1,4.4-8,4.4-8S181.8,22.4,178.1,26.8L178.1,26.8z"/>
		<path class="st2" d="M183.9,19.8c0,0-2.1,2.6-5.8,7c-0.9,1.1-2,2.3-3.2,3.6c-1.2,1.3-2.4,2.7-3.8,4.1c-1.3,1.5-2.9,2.9-4.5,4.5
			c-0.8,0.8-1.6,1.6-2.5,2.4c-0.8,0.8-1.7,1.7-2.6,2.5c-1.8,1.6-3.7,3.3-5.7,5.1c-2,1.7-4.2,3.4-6.3,5.1c-0.5,0.4-1.1,0.9-1.6,1.3
			c-0.6,0.4-1.1,0.8-1.7,1.3c-1.2,0.8-2.3,1.7-3.5,2.6c-2.3,1.8-4.9,3.3-7.4,5c-5,3.3-10.4,6.4-16,9.4c-1.4,0.8-2.8,1.5-4.2,2.1
			c-1.4,0.7-2.8,1.4-4.3,2.1c-2.9,1.3-5.8,2.6-8.7,3.9c-5.9,2.4-11.8,4.6-17.7,6.5c-5.9,2-11.8,3.5-17.5,4.9
			c-5.7,1.3-11.3,2.5-16.6,3.3c-5.3,0.9-10.3,1.5-14.9,2c-9.2,0.9-16.9,1.1-22.1,1.1c-2.6,0-4.6-0.1-5.9-0.2c-0.3,0-0.6,0-0.8-0.1
			c-0.2,0-0.3,0-0.4-0.1c-0.1,0-0.1,0-0.1,0c-0.1,0-0.1,0-0.2,0c-0.1,0-0.2,0-0.2,0S88.2,148.5,183.9,19.8L183.9,19.8z"/>
	</g>
	<g>
		<path class="st3" d="M313.9,28.6c0,2.2,0,4.4,0,6.6c0,6.5-0.1,13-0.1,19.6c0,0.4,0,0.7-0.5,0.7c-5,0-10.1,0-15.1,0
			c-6.9,0-13.9,0-20.8,0.1c-0.6,0-0.8,0.1-0.8,0.8c0,21.9,0,43.7,0,65.6c0,0.1,0,0.2,0,0.5h37.2V149h-67.5c0-0.7,0-1.4,0-2.1
			c0-38.3,0-76.5,0-114.8c0-1.1,0-2.2,0-3.3c0-0.5,0.1-0.6,0.6-0.6c1.5,0,2.9,0,4.4,0c6.8,0,13.6,0,20.4,0
			c13.9,0.1,27.7,0.1,41.6,0.2C313.4,28.5,313.6,28.5,313.9,28.6L313.9,28.6z"/>
		<path class="st3" d="M451.8,149.1h-28.7V67.2h28.7v9.6c0.2-0.2,0.3-0.2,0.4-0.3c2.5-3.6,5.9-6.1,9.9-8c3.9-1.9,8.1-2.8,12.5-3.1
			c4.5-0.3,8.9,0.1,13.2,1.4c10.1,3,16.4,9.7,18.9,19.9c0.7,3,0.9,6,0.9,9.1c0,17.4,0,34.8,0,52.2c0,0.3,0,0.7,0,1h-28.4
			c0-0.1-0.1-0.3-0.1-0.5c0-13.1,0-26.3,0-39.4c0-3.6,0-7.3-0.9-10.9c-0.5-1.7-1.2-3.4-2-5c-1.3-2.4-3.4-3.8-6.1-4.4
			c-3.3-0.7-6.6-0.7-9.7,0.5c-4.2,1.6-6.6,4.8-7.7,9c-0.5,2-0.8,4-0.8,6c-0.1,14.6,0,29.1,0,43.7
			C451.8,148.4,451.8,148.7,451.8,149.1L451.8,149.1z"/>
		<path class="st3" d="M323.2,67.2c0.5,0,0.8,0,1.1,0c8.1,0,16.1,0,24.2,0c0.3,0,0.7,0,1,0c0.5-0.1,0.7,0.1,0.9,0.5
			c1,2.4,2,4.8,3,7.3c2.5,6.1,4.9,12.2,7.4,18.3c2.6,6.6,5.2,13.1,7.8,19.7c0.4,1.1,0.9,2.2,1.3,3.3c6.6-16.4,13.1-32.8,19.7-49.2
			h26.9c-0.2,0.5-0.3,1.1-0.5,1.6c-2.2,5.5-4.4,10.9-6.6,16.4c-2.6,6.6-5.3,13.3-7.9,19.9c-1.4,3.5-2.8,6.9-4.2,10.4
			c-1,2.6-2,5.1-3,7.7c-1,2.5-2,5-3,7.5c-0.8,2.1-1.7,4.1-2.5,6.2c-1.4,3.4-2.8,6.9-4.1,10.3c-0.8,1.9-0.7,2-2.8,2
			c-8.3,0-16.7,0-25,0c-0.6,0-0.9-0.1-1.2-0.8c-1.9-4.9-3.9-9.7-5.8-14.6c-2.4-6-4.8-12-7.2-18c-2-5-4-10-6-15
			c-2.7-6.7-5.3-13.4-8-20.1c-1.7-4.2-3.4-8.4-5-12.5C323.4,67.9,323.3,67.6,323.2,67.2L323.2,67.2z"/>
		<path class="st3" d="M528.4,92.2h-9.1v-25h9.1V42.6H557v1.3c0,22.8,0,45.6,0,68.5c0,2.1,0.1,4.2,0.5,6.2c0.8,4,3.2,6.9,6.9,8.6
			c1,0.5,2.2,0.8,3.4,1c1.1,0.2,2.3,0.2,3.5,0.3v23.6c-0.1,0-0.2,0.1-0.3,0.1c-5.6,0.1-11.2-0.3-16.7-1.5c-4.6-1-9-2.5-13-5.1
			c-5.3-3.4-9.1-8-11.1-14.1c-1.2-3.7-1.7-7.4-1.7-11.3c0-9,0-17.9,0-26.9V92.2L528.4,92.2z"/>
		<path class="st3" d="M228.1,149.1h-28.7V67.3h28.7V149.1z"/>
		<path class="st2" d="M298.8,72.5c8.1-0.1,15,5.8,16.1,13.5c0.9,6.1-0.9,11.4-5.6,15.5c-2.7,2.3-5.8,3.5-9.3,3.6
			c-7.2,0.3-12.6-3.6-15.2-9.3c-3.7-8.1-0.6-18.1,8.1-22C294.9,72.8,297,72.4,298.8,72.5L298.8,72.5z"/>
		<path class="st2" d="M594.1,83.6c0.3,8.1-6.4,14.9-12.9,16c-5.8,0.9-10.6-0.7-14.6-5c-5.5-5.9-5.9-17,1.4-23.4
			c3-2.6,6.4-3.7,10.3-3.9c7.1-0.3,13.7,5.1,15.4,12c0.2,0.6,0.3,1.2,0.3,1.9C594,81.9,594.1,82.7,594.1,83.6z"/>
		<path class="st2" d="M213.8,52c-7.2-0.3-12.4-4-14.9-10.5c-3-7.9,0.5-16.9,8-20.7c4.6-2.3,12.1-2,17.1,2.3
			c8.1,7.1,7.8,21.2-3.3,27.3C218.7,51.6,216.2,52.1,213.8,52L213.8,52z"/>
	</g>
</g>
</svg>
