<?xml version="1.0" encoding="UTF-8"?>
<svg id="a" data-name="Layer 3" xmlns="http://www.w3.org/2000/svg" viewBox="0 0 588.4 154.29">
  <defs>
    <style>
      .b {
        fill: #f1b24a;
      }

      .c {
        fill: #f1efef;
      }

      .d {
        fill: #f0efef;
      }

      .e {
        fill: #40403f;
      }
    </style>
  </defs>
  <g>
    <path class="c" d="m136.69,88.85c-5.35,22.45-25.52,39.16-49.62,39.16-28.18,0-51.02-22.84-51.02-51.02s22.84-51.02,51.02-51.02c19.88,0,37.1,11.38,45.51,27.97l23.85-10.4C143.99,17.78,117.61,0,87.07,0,44.55,0,10.08,34.47,10.08,76.99s34.47,76.99,76.99,76.99,76.99-34.47,76.99-76.99c0-2.8-.16-5.55-.45-8.26l-26.93,20.13h.01Z"/>
    <path class="d" d="m87.09,153.98c42.52,0,76.99-34.47,76.99-76.99,0-2.8-.16-5.55-.45-8.26l-26.93,20.13c-5.35,22.45-25.52,39.16-49.62,39.16-15.16,0-28.77-6.62-38.12-17.13l-24.39,11.02c13.98,19.42,36.76,32.07,62.51,32.07h.01Z"/>
    <path class="e" d="m172.34,18.01c-.89,1.13-2.01,2.29-3.17,3.57-1.18,1.28-2.45,2.65-3.81,4.13-1.32,1.5-2.91,2.94-4.49,4.52-.8.78-1.62,1.58-2.46,2.41-.83.83-1.7,1.66-2.63,2.46-1.83,1.62-3.73,3.31-5.71,5.06-2.02,1.7-4.16,3.37-6.32,5.11-.54.43-1.09.87-1.64,1.31-.57.41-1.14.83-1.72,1.26-1.15.84-2.32,1.68-3.5,2.55-2.3,1.76-4.86,3.33-7.35,5.01-5.04,3.3-10.41,6.42-15.95,9.37-1.36.76-2.78,1.45-4.21,2.15-1.41.7-2.84,1.39-4.26,2.08-2.87,1.33-5.79,2.6-8.69,3.86-5.88,2.38-11.77,4.65-17.69,6.5-5.88,1.96-11.78,3.48-17.47,4.91-5.74,1.29-11.26,2.47-16.56,3.3-5.27.89-10.28,1.5-14.89,1.98-9.22.92-16.87,1.14-22.06,1.09-2.6-.01-4.6-.1-5.87-.18-.31-.03-.6-.04-.83-.05-.17-.03-.31-.04-.43-.05-.05,0-.1,0-.14-.01H.15l.08,2.94c.39,6.18,2.47,21.26,13.08,36.95,6.16-1.23,14.31-3.19,23.72-6.07,5.09-1.57,10.53-3.39,16.2-5.54,5.68-2.1,11.54-4.62,17.53-7.3,5.94-2.81,12.03-5.77,18.01-9.18,6.02-3.3,11.91-7.03,17.69-10.85,2.85-1.98,5.7-3.96,8.47-6,1.37-1.05,2.73-2.1,4.09-3.13s2.72-2.07,4-3.17c5.26-4.3,10.24-8.71,14.81-13.22,2.27-2.28,4.56-4.43,6.6-6.73,1.04-1.13,2.07-2.25,3.08-3.35.5-.56,1.01-1.1,1.51-1.64.48-.57.95-1.13,1.42-1.68,1.86-2.25,3.72-4.39,5.43-6.53,1.64-2.18,3.24-4.29,4.76-6.31.78-1,1.49-2.01,2.15-3.02.69-1,1.35-1.97,1.99-2.93,1.27-1.92,2.56-3.65,3.59-5.43,1.06-1.74,2.06-3.37,2.98-4.88.92-1.5,1.77-2.86,2.43-4.17,2.77-5.11,4.35-8.04,4.35-8.04,0,0-2.11,2.55-5.81,7.01v-.06Z"/>
    <path class="b" d="m178.16,11.01s-2.11,2.55-5.81,7.01c-.89,1.13-2.01,2.29-3.17,3.57-1.18,1.28-2.45,2.65-3.81,4.13-1.32,1.5-2.91,2.94-4.49,4.52-.8.78-1.62,1.58-2.46,2.41-.83.83-1.7,1.66-2.63,2.46-1.83,1.62-3.73,3.31-5.71,5.06-2.02,1.7-4.16,3.37-6.32,5.11-.54.43-1.09.87-1.64,1.31-.57.41-1.14.83-1.72,1.26-1.15.84-2.32,1.68-3.5,2.55-2.3,1.76-4.86,3.33-7.35,5.01-5.04,3.3-10.41,6.42-15.95,9.37-1.36.76-2.78,1.45-4.21,2.15-1.41.7-2.84,1.39-4.26,2.08-2.87,1.33-5.79,2.6-8.69,3.86-5.88,2.38-11.77,4.65-17.69,6.5-5.88,1.96-11.78,3.48-17.47,4.91-5.74,1.29-11.26,2.47-16.56,3.3-5.27.89-10.28,1.5-14.89,1.98-9.22.92-16.87,1.14-22.06,1.09-2.6-.01-4.6-.1-5.87-.18-.31-.03-.6-.04-.83-.05-.17-.03-.31-.04-.43-.05-.05,0-.1,0-.14-.01H.16S82.46,139.71,178.15,11.06v-.05Z"/>
  </g>
  <g>
    <path class="d" d="m308.15,19.75v6.59c-.03,6.53-.05,13.04-.08,19.56,0,.39.04.66-.53.66-5.02-.03-10.06-.04-15.08-.04-6.94,0-13.89.04-20.83.05-.57,0-.79.13-.79.76.01,21.86.01,43.71.01,65.56,0,.13,0,.25.03.47h37.23v26.83h-67.49V23.36c0-1.1.04-2.19,0-3.29-.03-.47.14-.57.56-.57h4.36c6.8,0,13.58-.03,20.38,0,13.85.05,27.72.13,41.58.19.19,0,.39.04.7.06h-.04Z"/>
    <path class="d" d="m446.09,140.26h-28.68V58.41h28.65v9.62c.21-.17.32-.22.38-.31,2.49-3.64,5.94-6.12,9.85-8,3.92-1.9,8.11-2.8,12.46-3.07,4.51-.28,8.93.09,13.25,1.4,10.09,3.03,16.42,9.66,18.93,19.88.74,2.98.95,6.02.95,9.09-.03,17.39-.01,34.79-.01,52.18v1.05h-28.45c-.03-.14-.08-.31-.08-.48,0-13.14,0-26.28-.01-39.43,0-3.64,0-7.3-.91-10.85-.45-1.72-1.15-3.43-1.99-5-1.29-2.38-3.44-3.78-6.09-4.35-3.28-.7-6.55-.67-9.72.5-4.18,1.57-6.6,4.78-7.69,8.96-.51,1.96-.79,4.01-.8,6.02-.06,14.57-.03,29.13-.03,43.7v.93h0Z"/>
    <path class="d" d="m317.47,58.37h25.26c.34,0,.67.03,1-.03.47-.08.69.13.85.54.98,2.42,1.99,4.84,2.97,7.26,2.46,6.11,4.91,12.21,7.35,18.33,2.62,6.56,5.23,13.13,7.85,19.69.43,1.09.87,2.16,1.33,3.34,6.58-16.41,13.12-32.76,19.68-49.15h26.91c-.17.54-.3,1.07-.51,1.57-2.19,5.48-4.39,10.94-6.58,16.42-2.64,6.63-5.26,13.27-7.91,19.91-1.39,3.47-2.82,6.91-4.22,10.37-1.02,2.55-2.01,5.1-3.02,7.65-1,2.5-2.03,4.99-3.04,7.48-.84,2.07-1.67,4.14-2.5,6.22-1.37,3.44-2.77,6.88-4.1,10.35-.75,1.93-.7,1.96-2.77,1.96h-24.96c-.61,0-.95-.14-1.19-.75-1.93-4.87-3.9-9.72-5.84-14.58-2.41-6-4.82-11.98-7.21-17.97-2.01-5-4.01-10-6.01-15.01-2.68-6.71-5.33-13.41-8.01-20.12-1.67-4.18-3.35-8.35-5.02-12.53-.1-.27-.18-.57-.3-.97h0Z"/>
    <path class="d" d="m522.69,83.43h-9.05v-25.02h9.05v-24.61h28.56v1.29c0,22.81,0,45.64.03,68.46,0,2.07.13,4.2.54,6.22.82,3.98,3.24,6.86,6.9,8.61,1.04.49,2.21.75,3.35.97,1.13.21,2.28.22,3.47.31v23.62c-.09.03-.21.06-.32.06-5.63.08-11.23-.32-16.73-1.54-4.61-1.01-9.02-2.54-13.03-5.09-5.35-3.42-9.14-8.04-11.1-14.11-1.18-3.68-1.7-7.43-1.68-11.28.01-8.96,0-17.93,0-26.89v-1.01h0Z"/>
    <path class="d" d="m222.34,140.26h-28.65V58.44h28.65v81.82Z"/>
    <path class="b" d="m293.11,63.64c8.12-.1,14.97,5.77,16.06,13.47.87,6.14-.85,11.36-5.59,15.49-2.67,2.32-5.79,3.48-9.28,3.64-7.17.3-12.6-3.59-15.19-9.32-3.65-8.08-.65-18.09,8.14-22.01,1.98-.88,4.08-1.29,5.87-1.26h0Z"/>
    <path class="b" d="m588.39,74.75c.34,8.08-6.41,14.94-12.95,15.97-5.8.91-10.62-.71-14.63-5.04-5.46-5.89-5.93-17,1.36-23.45,2.97-2.63,6.38-3.73,10.33-3.9,7.06-.3,13.69,5.09,15.38,12.03.16.62.28,1.24.35,1.88.09.83.1,1.67.16,2.51Z"/>
    <path class="b" d="m208.11,43.18c-7.2-.31-12.43-3.98-14.86-10.46-2.98-7.9.53-16.92,8.04-20.69,4.64-2.32,12.15-2.02,17.05,2.29,8.07,7.07,7.82,21.2-3.29,27.32-2.06,1.14-4.58,1.63-6.94,1.53h0Z"/>
  </g>
</svg>