<?xml version="1.0" encoding="UTF-8"?>
<svg id="a" data-name="Layer 1" xmlns="http://www.w3.org/2000/svg" xmlns:xlink="http://www.w3.org/1999/xlink" viewBox="0 0 484.09 418.82">
  <defs>
    <style>
      .d {
        fill: #f1b24a;
      }

      .e {
        fill: url(#b);
      }

      .f {
        fill: #4d774e;
      }

      .g {
        fill: url(#c);
      }
    </style>
    <linearGradient id="b" x1="385.91" y1="209.41" x2="54.1" y2="209.41" gradientUnits="userSpaceOnUse">
      <stop offset="0" stop-color="#4d774e"/>
      <stop offset=".73" stop-color="#174a42"/>
    </linearGradient>
    <linearGradient id="c" x1="62.12" y1="302.87" x2="544.2" y2="302.87" gradientUnits="userSpaceOnUse">
      <stop offset="0" stop-color="#174a42"/>
      <stop offset="1" stop-color="#4d774e"/>
    </linearGradient>
  </defs>
  <path class="e" d="m371.32,241.68c-14.55,61.06-69.42,106.49-134.94,106.49-76.64,0-138.76-62.13-138.76-138.76s62.12-138.76,138.76-138.76c54.07,0,100.88,30.94,123.78,76.07l64.88-28.28C391.19,48.35,319.43,0,236.38,0,120.73,0,26.97,93.76,26.97,209.41s93.75,209.41,209.41,209.41,209.41-93.76,209.41-209.41c0-7.6-.43-15.09-1.22-22.48l-73.26,54.76Z"/>
  <path class="g" d="m236.38,418.82c115.65,0,209.41-93.76,209.41-209.41,0-7.6-.43-15.09-1.22-22.48l-73.26,54.76c-14.55,61.06-69.42,106.49-134.94,106.49-41.24,0-78.26-18.01-103.68-46.57l-66.35,29.98c38.02,52.82,99.99,87.24,170.03,87.24Z"/>
  <path class="f" d="m468.26,49.02c-2.44,3.07-5.44,6.24-8.64,9.72-3.2,3.47-6.66,7.22-10.36,11.23-3.58,4.09-7.93,7.98-12.22,12.3-2.17,2.13-4.4,4.31-6.68,6.55-2.25,2.25-4.6,4.51-7.14,6.69-4.97,4.41-10.15,9.01-15.52,13.76-5.49,4.6-11.32,9.15-17.19,13.91-1.48,1.18-2.96,2.37-4.46,3.56-1.55,1.13-3.11,2.27-4.68,3.41-3.13,2.28-6.3,4.59-9.5,6.93-6.28,4.79-13.21,9.05-19.99,13.61-13.7,8.98-28.31,17.47-43.39,25.48-3.71,2.09-7.58,3.96-11.44,5.84-3.85,1.89-7.71,3.79-11.57,5.68-7.81,3.63-15.73,7.08-23.61,10.51-15.99,6.49-32,12.64-48.11,17.67-15.98,5.31-32.05,9.47-47.51,13.34-15.6,3.52-30.63,6.73-45.03,8.97-14.35,2.41-27.97,4.09-40.5,5.37-25.09,2.49-45.88,3.09-60.02,2.95-7.08-.04-12.49-.27-15.95-.48-.86-.06-1.61-.1-2.26-.15-.46-.06-.85-.11-1.16-.15-.15-.02-.28-.03-.4-.05-.2-.01-.37-.03-.5-.03-.28-.02-.42-.03-.42-.03l.23,7.99c1.06,16.8,6.71,57.82,35.57,100.52,16.75-3.36,38.92-8.65,64.53-16.5,13.82-4.27,28.65-9.21,44.04-15.09,15.44-5.69,31.39-12.57,47.67-19.87,16.18-7.65,32.73-15.72,48.98-24.97,16.36-8.98,32.4-19.11,48.12-29.51,7.76-5.39,15.48-10.78,23.03-16.32,3.72-2.85,7.43-5.69,11.13-8.53,3.69-2.82,7.38-5.62,10.89-8.64,14.28-11.69,27.84-23.7,40.28-35.95,6.16-6.19,12.39-12.03,17.95-18.32,2.83-3.08,5.63-6.12,8.39-9.13,1.38-1.5,2.74-2.99,4.1-4.47,1.3-1.54,2.59-3.07,3.87-4.59,5.08-6.12,10.09-11.95,14.74-17.75,4.48-5.92,8.81-11.65,12.97-17.14,2.12-2.7,4.04-5.46,5.86-8.2,1.85-2.71,3.66-5.36,5.42-7.95,3.46-5.21,6.98-9.93,9.77-14.76,2.89-4.73,5.59-9.17,8.09-13.26,2.49-4.09,4.82-7.79,6.64-11.34,7.52-13.92,11.82-21.87,11.82-21.87,0,0-5.75,6.93-15.83,19.06Z"/>
  <path class="d" d="m484.09,29.96s-5.75,6.93-15.83,19.06c-2.44,3.07-5.44,6.24-8.64,9.72-3.2,3.47-6.66,7.22-10.36,11.23-3.58,4.09-7.93,7.98-12.22,12.3-2.17,2.13-4.4,4.31-6.68,6.55-2.25,2.25-4.6,4.51-7.14,6.69-4.97,4.41-10.15,9-15.52,13.76-5.49,4.6-11.32,9.15-17.19,13.91-1.48,1.18-2.96,2.37-4.46,3.56-1.55,1.13-3.11,2.27-4.68,3.41-3.13,2.28-6.3,4.59-9.5,6.93-6.28,4.79-13.21,9.05-19.99,13.61-13.7,8.98-28.31,17.47-43.39,25.48-3.71,2.09-7.58,3.96-11.44,5.84-3.85,1.89-7.71,3.79-11.57,5.68-7.81,3.63-15.73,7.08-23.61,10.51-15.99,6.49-32,12.64-48.11,17.67-15.98,5.31-32.05,9.47-47.51,13.34-15.6,3.52-30.63,6.73-45.03,8.97-14.35,2.41-27.97,4.09-40.5,5.37-25.09,2.49-45.88,3.09-60.02,2.95-7.08-.04-12.49-.27-15.95-.48-.86-.06-1.61-.1-2.26-.15-.46-.06-.85-.11-1.16-.15-.15-.02-.28-.03-.4-.05-.2-.01-.37-.03-.5-.03-.27-.02-.42-.03-.42-.03,0,0,223.84,134.25,484.09-215.66Z"/>
</svg>