<?xml version="1.0" encoding="utf-8"?>
<!-- Generator: Adobe Illustrator 27.3.1, SVG Export Plug-In . SVG Version: 6.00 Build 0)  -->
<svg version="1.1" id="a" xmlns="http://www.w3.org/2000/svg" xmlns:xlink="http://www.w3.org/1999/xlink" x="0px" y="0px"
	 viewBox="0 0 484.1 418.8" style="enable-background:new 0 0 484.1 418.8;" xml:space="preserve">
<style type="text/css">
	.st0{fill:#E0E0E0;}
	.st1{fill:#C4C4C4;}
</style>
<path class="st0" d="M371.3,241.7c-14.5,61.1-69.4,106.5-134.9,106.5c-76.6,0-138.8-62.1-138.8-138.8S159.7,70.6,236.4,70.6
	c54.1,0,100.9,30.9,123.8,76.1l64.9-28.3C391.2,48.3,319.4,0,236.4,0C120.7,0,27,93.8,27,209.4s93.8,209.4,209.4,209.4
	s209.4-93.8,209.4-209.4c0-7.6-0.4-15.1-1.2-22.5L371.3,241.7L371.3,241.7z"/>
<path class="st0" d="M236.4,418.8c115.6,0,209.4-93.8,209.4-209.4c0-7.6-0.4-15.1-1.2-22.5l-73.3,54.8
	c-14.5,61.1-69.4,106.5-134.9,106.5c-41.2,0-78.3-18-103.7-46.6l-66.3,30C104.4,384.4,166.3,418.8,236.4,418.8L236.4,418.8z"/>
<path class="st0" d="M468.3,49c-2.4,3.1-5.4,6.2-8.6,9.7c-3.2,3.5-6.7,7.2-10.4,11.2c-3.6,4.1-7.9,8-12.2,12.3
	c-2.2,2.1-4.4,4.3-6.7,6.6c-2.2,2.2-4.6,4.5-7.1,6.7c-5,4.4-10.1,9-15.5,13.8c-5.5,4.6-11.3,9.2-17.2,13.9c-1.5,1.2-3,2.4-4.5,3.6
	c-1.5,1.1-3.1,2.3-4.7,3.4c-3.1,2.3-6.3,4.6-9.5,6.9c-6.3,4.8-13.2,9.1-20,13.6c-13.7,9-28.3,17.5-43.4,25.5
	c-3.7,2.1-7.6,4-11.4,5.8c-3.9,1.9-7.7,3.8-11.6,5.7c-7.8,3.6-15.7,7.1-23.6,10.5c-16,6.5-32,12.6-48.1,17.7
	c-16,5.3-32.1,9.5-47.5,13.3c-15.6,3.5-30.6,6.7-45,9c-14.3,2.4-28,4.1-40.5,5.4c-25.1,2.5-45.9,3.1-60,2.9
	c-7.1,0-12.5-0.3-15.9-0.5c-0.9-0.1-1.6-0.1-2.3-0.1c-0.5-0.1-0.9-0.1-1.2-0.1c-0.1,0-0.3,0-0.4-0.1c-0.2,0-0.4,0-0.5,0
	c-0.3,0-0.4,0-0.4,0l0.2,8c1.1,16.8,6.7,57.8,35.6,100.5c16.8-3.4,38.9-8.6,64.5-16.5c13.8-4.3,28.6-9.2,44-15.1
	c15.4-5.7,31.4-12.6,47.7-19.9c16.2-7.6,32.7-15.7,49-25c16.4-9,32.4-19.1,48.1-29.5c7.8-5.4,15.5-10.8,23-16.3
	c3.7-2.9,7.4-5.7,11.1-8.5c3.7-2.8,7.4-5.6,10.9-8.6c14.3-11.7,27.8-23.7,40.3-35.9c6.2-6.2,12.4-12,18-18.3
	c2.8-3.1,5.6-6.1,8.4-9.1c1.4-1.5,2.7-3,4.1-4.5c1.3-1.5,2.6-3.1,3.9-4.6c5.1-6.1,10.1-11.9,14.7-17.8c4.5-5.9,8.8-11.7,13-17.1
	c2.1-2.7,4-5.5,5.9-8.2c1.9-2.7,3.7-5.4,5.4-7.9c3.5-5.2,7-9.9,9.8-14.8c2.9-4.7,5.6-9.2,8.1-13.3c2.5-4.1,4.8-7.8,6.6-11.3
	c7.5-13.9,11.8-21.9,11.8-21.9S478.4,36.9,468.3,49L468.3,49z"/>
<path class="st1" d="M484.1,30c0,0-5.8,6.9-15.8,19.1c-2.4,3.1-5.4,6.2-8.6,9.7c-3.2,3.5-6.7,7.2-10.4,11.2
	c-3.6,4.1-7.9,8-12.2,12.3c-2.2,2.1-4.4,4.3-6.7,6.6c-2.2,2.2-4.6,4.5-7.1,6.7c-5,4.4-10.1,9-15.5,13.8c-5.5,4.6-11.3,9.2-17.2,13.9
	c-1.5,1.2-3,2.4-4.5,3.6c-1.5,1.1-3.1,2.3-4.7,3.4c-3.1,2.3-6.3,4.6-9.5,6.9c-6.3,4.8-13.2,9.1-20,13.6c-13.7,9-28.3,17.5-43.4,25.5
	c-3.7,2.1-7.6,4-11.4,5.8c-3.9,1.9-7.7,3.8-11.6,5.7c-7.8,3.6-15.7,7.1-23.6,10.5c-16,6.5-32,12.6-48.1,17.7
	c-16,5.3-32.1,9.5-47.5,13.3c-15.6,3.5-30.6,6.7-45,9c-14.3,2.4-28,4.1-40.5,5.4c-25.1,2.5-45.9,3.1-60,2.9
	c-7.1,0-12.5-0.3-15.9-0.5c-0.9-0.1-1.6-0.1-2.3-0.1c-0.5-0.1-0.9-0.1-1.2-0.1c-0.1,0-0.3,0-0.4-0.1c-0.2,0-0.4,0-0.5,0
	c-0.3,0-0.4,0-0.4,0S223.9,379.9,484.1,30L484.1,30z"/>
</svg>
